<?xml version="1.0" encoding="utf-8"?>
<!-- Generator: Adobe Illustrator 21.1.0, SVG Export Plug-In . SVG Version: 6.00 Build 0)  -->
<svg version="1.1" id="Layer_1" xmlns="http://www.w3.org/2000/svg" xmlns:xlink="http://www.w3.org/1999/xlink" x="0px" y="0px"
	 viewBox="0 0 78.8 94" style="enable-background:new 0 0 78.8 94;" xml:space="preserve">
<style type="text/css">
	.st0{fill:#8A2223;}
</style>
<path class="st0" d="M0,69.3c0,4.4,1.9,8.3,4.9,11v8.8c0,2.7,2.2,4.9,4.9,4.9h4.9c2.7,0,4.9-2.2,4.9-4.9v-4.9h39.6v4.9
	c0,2.7,2.2,4.9,4.9,4.9H69c2.7,0,4.9-2.2,4.9-4.9v-8.8c3-2.7,4.9-6.6,4.9-11V19.8C79.2,2.5,61.5,0,39.6,0S0,2.5,0,19.8
	C0,19.8,0,69.3,0,69.3z M17.3,74.2c-4.1,0-7.4-3.3-7.4-7.4s3.3-7.4,7.4-7.4s7.4,3.3,7.4,7.4S21.4,74.2,17.3,74.2z M61.9,74.2
	c-4.1,0-7.4-3.3-7.4-7.4s3.3-7.4,7.4-7.4s7.4,3.3,7.4,7.4S66,74.2,61.9,74.2z M69.3,44.5H9.9V19.8h59.4V44.5z"/>
</svg>
