<svg enable-background="new 0 0 117.8 112.3" height="112.3" viewBox="0 0 117.8 112.3" width="117.8" xmlns="http://www.w3.org/2000/svg"><path d="m13.8 78.9c0-8.3 0-16.7 0-25.4v-.5c0-1.9.9-3.7 1.9-5.1 1.4-1.9 3.2-3.2 5.6-3.7.5 0 .5 0 .5-.5 2.3-6 4.6-12.5 7.4-18.5.9-2.3 2.3-4.2 4.2-5.1s3.7-1.4 6-1.4h9.6 29.6c1.4 0 2.8 0 3.7.5 2.8.9 5.1 3.2 6 6 2.3 6 4.6 12 6.9 18.5 0 .5.5.9.9.9h.5c3.7 1.4 6 3.7 6.9 7.4 0 .5 0 .9.5 1.9v25c-2.3 0-4.6 0-6.5 0 0 0 0 0-.5 0v.5 6.9 1.9c-.5 2.8-2.3 4.6-5.1 5.1s-5.1 0-6.9-2.3c-.9-1.4-1.4-2.8-1.4-4.6 0-2.3 0-4.6 0-6.9v-.5c-16.2 0-32.4 0-48.6 0v.5 6.9 1.4c-.5 2.8-1.9 4.6-4.6 5.6-3.2.9-6.5-.5-7.9-3.2-.5-.9-.9-2.3-.9-3.2 0-2.3 0-5.1 0-7.4v-.5h-.5c-1.9 0-3.2 0-5.1 0-.8-.2-1.7-.2-2.2-.2zm74-34.7c0-.5 0-.5 0 0-1.4-3.7-2.8-6.9-3.7-10.6-.5-1.9-1.4-3.7-1.9-5.6-.9-1.9-1.9-2.8-4.2-2.8-3.7 0-6.9 0-10.6 0-9.3 0-18.5 0-27.8 0-1.9 0-3.2.9-4.2 2.8 0 .5-.5.9-.5 1.4-1.9 4.6-3.7 9.7-5.1 14.3v.5zm-4.6 13.4c0 3.7 2.8 6.5 6.5 6.5 3.2 0 6-2.8 6-6.5s-2.8-6.5-6-6.5c-3.7.1-6.5 3.3-6.5 6.5zm-61.5 0v1.4c.5 3.7 4.2 6 7.9 5.1 3.2-.9 5.1-3.7 4.6-6.9-.5-3.7-3.7-6-7.4-5.6-2.8.5-5.1 3.3-5.1 6z" fill="#8a2223"/></svg>