<svg enable-background="new 0 0 117.8 112.3" viewBox="0 0 117.8 112.3" xmlns="http://www.w3.org/2000/svg"><g fill="#8a2223"><path d="m26 55.7c0-9.5 7.2-16 16.2-16 7 0 11 3.7 13.2 7.6l-5.7 2.7c-1.3-2.5-4.1-4.5-7.5-4.5-5.4 0-9.5 4.3-9.5 10.2s4.1 10.2 9.5 10.2c3.4 0 6.2-1.9 7.5-4.5l5.7 2.7c-2.2 3.8-6.1 7.6-13.2 7.6-9 0-16.2-6.5-16.2-16z"/><path d="m57.9 55.7c0-9.5 7.2-16 16.2-16 7 0 11 3.7 13.2 7.6l-5.7 2.7c-1.3-2.5-4.1-4.5-7.5-4.5-5.4 0-9.5 4.3-9.5 10.2s4.1 10.2 9.5 10.2c3.4 0 6.2-1.9 7.5-4.5l5.7 2.7c-2.2 3.8-6.1 7.6-13.2 7.6-9 0-16.2-6.5-16.2-16z"/></g></svg>