<?xml version="1.0" encoding="utf-8"?>
<!-- Generator: Adobe Illustrator 21.1.0, SVG Export Plug-In . SVG Version: 6.00 Build 0)  -->
<svg version="1.1" id="Layer_1" xmlns="http://www.w3.org/2000/svg" xmlns:xlink="http://www.w3.org/1999/xlink" x="0px" y="0px"
	 viewBox="0 0 117.8 112.3" style="enable-background:new 0 0 117.8 112.3;" xml:space="preserve">
<style type="text/css">
	.st0{fill:#8A2223;}
</style>
<g>
	<path class="st0" d="M109.3,83.7c-2.9,9.9-12.6,16.4-22.4,15c-10.8-1.6-18.4-10.2-18.2-20.8c0.1-10.2,8-19,18.1-20.2
		c10.5-1.2,20.1,5.4,22.7,15.7c0.1,0.3,0.6,2.7,0.5,5.1C110,80.9,109.4,83.3,109.3,83.7z M89.4,95c9.4,0,16.8-7.5,16.8-16.9
		c-0.1-9.2-7.5-16.7-16.7-16.8c-9.3-0.1-16.9,7.5-16.9,16.9C72.5,87.5,80,95,89.4,95z"/>
	<path class="st0" d="M8.6,72.4c3-10.3,12.8-16.4,23.5-14.7c9.8,1.5,17.3,10.6,17.1,20.8c-0.2,10-8,18.9-17.7,20
		c-10.8,1.3-20.3-5.1-23-15.4c-0.1-0.3-0.7-2.6-0.6-5C7.8,75.4,8.5,72.7,8.6,72.4z M45.3,77.9c0-9.4-7.6-16.8-16.9-16.7
		c-9.2,0-16.6,7.5-16.7,16.8c0,9.3,7.5,16.9,16.8,16.9C37.8,94.8,45.4,87.2,45.3,77.9z"/>
	<path class="st0" d="M60.9,37c-3.4,3.5-6.7,6.9-10.1,10.3c2.8,1.5,5.7,3.1,8.8,4.6c2.8,1.4,3.9,3.4,3.9,6.5c-0.1,6.7,0,13.4,0,20.2
		c0,2.3-0.7,4.2-3.1,5c-3.1,1.1-5.9-1.1-5.9-4.7c-0.1-5-0.1-10,0-15.1c0-1.5-0.4-2.3-1.7-3c-4.7-2.5-9.4-5.2-14.1-7.8
		c-5.1-2.9-5.8-7.4-1.7-11.5c5-5.1,10.1-10.1,15.2-15.2c3.6-3.5,8-3.1,10.8,1.1c2.5,3.8,4.8,7.6,7.3,11.4c0.6,0.8,1.8,1.5,2.8,1.5
		c3.6,0.2,7.1,0.1,10.7,0.1c2,0,3.6,0.6,3.8,2.9c0.2,1.9-1.3,3.1-3.8,3.2c-4.8,0.1-9.5,0.2-14.3-0.1c-1.3-0.1-2.9-1.1-3.7-2.1
		C64,42.1,62.6,39.6,60.9,37z"/>
	<path class="st0" d="M76.5,20c0,4.3-3.6,7.8-7.8,7.7C64.4,27.6,61,24.2,61,20c0-4.3,3.5-7.8,7.7-7.9C73,12.2,76.5,15.7,76.5,20z"/>
</g>
</svg>
