<svg enable-background="new 0 0 117.8 112.3" viewBox="0 0 117.8 112.3" xmlns="http://www.w3.org/2000/svg"><g fill="#8a2223"><path d="m69 45.1h-4.4v15h4.4c4.8 0 7.5-3.4 7.5-7.5.1-4.2-2.5-7.5-7.5-7.5z"/><path d="m40.8 56.1h8l-4-11z"/><path d="m95.7 53.7c0-15.1-17.2-27.4-38.3-27.4-21.2 0-38.4 12.3-38.4 27.4s17.2 27.4 38.3 27.4c4.9 0 9.5-.7 13.8-1.8l17.1 9.3-3.1-16c6.6-4.9 10.6-11.5 10.6-18.9zm-44 11-1.5-4.1h-10.7l-1.5 4.1h-5.6l9.3-24.1h6.3l9.3 24.1zm17.3 0h-9.5v-24.1h9.5c7.5 0 12.8 4.8 12.8 12 0 7.3-5.2 12.1-12.8 12.1z"/></g></svg>