<svg enable-background="new 0 0 117.8 112.3" viewBox="0 0 117.8 112.3" xmlns="http://www.w3.org/2000/svg"><g fill="#8a2223"><path d="m36.7 62.9h.2c0 5.3-.4 10.7.1 16 .4 3.9 1.3 8.2 3.5 11.3 5.9 8.4 18.3 9.4 24.7 5.3 10.4-6.5 20.6-13.2 30.8-19.9.6-.4 1.1-1 1.4-1.6.8-1.7-.2-3-2-2.7-.8.1-1.5.5-2.2.9-3.5 1.8-6.9 3.8-10.5 5.5-.9.5-2.2.2-3.4.3.5-1 .9-2.1 1.5-3.1.2-.3.6-.5.8-.7 4.8-3.8 9.7-7.6 14.5-11.4 1.4-1.1 1.9-2.5.8-4s-2.6-1.5-4.1-.5c-.8.5-1.6 1.1-2.3 1.6-4.5 3.2-9.1 6.5-13.7 9.5-.7.4-1.9 0-2.9-.1.2-.8.3-1.7.6-2.5.2-.4.7-.7 1.1-1.1 5-4.9 9.9-9.8 14.9-14.6 2-2 2.6-4.4 1.4-5.6-1.2-1.3-3.4-.8-5.6 1.1-5.7 5-11.3 10-17 14.9-.8.7-2.1.7-3.2 1 .4-1 .5-2.2 1.1-3 4.4-5.7 8.9-11.2 13.4-16.8 1.2-1.5 1.5-3.2.2-4.6-1.4-1.5-3.1-.8-4.6.1-.5.3-.9.8-1.3 1.2-7.7 8.4-15.4 16.9-23.1 25.3-.5.6-1.1 1.2-1.8 1.6-.9.4-2.2 1-3 .7-.7-.3-1.1-1.8-1.2-2.7-.4-4.8-.6-9.6-1-14.5-.1-1.4-.5-2.9-1.2-4.2-1.4-2.5-4.7-2.4-6 .2-.6 1.3-.8 2.8-.8 4.2-.1 4.4-.1 8.7-.1 12.9zm0-20.9c.5-.2.9-.4 1.3-.5 5.4-1.8 9.4.7 10 6.4.4 3.2.6 6.4 1 9.6.1.8.7 1.6 1 2.4.8-.4 1.8-.6 2.4-1.2 4.9-5.1 9.8-10.3 14.6-15.5.6-.6 1.1-1.6 1.1-2.5.7-6.8 1.2-13.6 1.8-20.4.2-1.9-1.3-3.9-2.9-4.1-1.7-.3-3 .9-3.4 3.2-.1.4-.1.7-.1 1.1-.9 6.1-1.8 12.2-2.5 18.3-.3 2-1.3 2.4-3.2 2 0-.8 0-1.6 0-2.4 0-8.2 0-16.4-.1-24.6 0-2.9-2.2-5.2-4.6-5.1-2.3.1-3.4 1.7-3.3 4.9.1 8.2.2 16.4.1 24.6 0 .8-.8 2-1.4 2.2-1.3.4-1.9-.7-2-2-.2-1.9-.4-3.8-.6-5.7-.6-5.2-1.1-10.5-1.8-15.7-.3-2.1-2-3.6-3.9-3.5-1.8.1-3.4 1.7-3.5 3.7-.1 8.3 0 16.5 0 24.8zm-3.5 24.2c.2-.1.4-.3.6-.4 0-3.7-.1-7.4 0-11.2 0-1.3-.3-2.1-1.6-2.7-3.6-1.9-7.1-4.1-10.8-5.9-1.1-.5-2.9-.6-3.8 0-.7.5-.8 2.2-.8 3.4 0 .8.4 1.8 1 2.4 5.2 4.9 10.3 9.7 15.4 14.4z"/><path d="m36.7 62.9c0-4.3-.1-8.5 0-12.8 0-1.4.3-3 .8-4.2 1.2-2.6 4.6-2.7 6-.2.7 1.2 1.1 2.7 1.2 4.2.4 4.8.6 9.6 1 14.5.1 1 .5 2.4 1.2 2.7s2-.3 3-.7c.7-.3 1.3-1 1.8-1.6 7.7-8.4 15.4-16.9 23.1-25.3.4-.4.8-.9 1.3-1.2 1.5-.9 3.2-1.6 4.6-.1 1.3 1.4 1 3.1-.2 4.6-4.5 5.6-9 11.2-13.4 16.8-.6.8-.8 2-1.1 3 1.1-.3 2.4-.3 3.2-1 5.7-4.9 11.4-9.9 17-14.9 2.2-2 4.4-2.4 5.6-1.1 1.2 1.2.6 3.6-1.4 5.6-4.9 4.9-9.9 9.8-14.9 14.6-.4.4-.9.7-1.1 1.1-.3.8-.4 1.7-.6 2.5 1 0 2.2.5 2.9.1 4.6-3.1 9.1-6.3 13.7-9.5.8-.5 1.5-1.1 2.3-1.6 1.5-.9 3-.9 4.1.5 1.1 1.5.7 2.8-.8 4-4.8 3.8-9.7 7.6-14.5 11.4-.3.2-.7.4-.8.7-.5 1-1 2-1.5 3.1 1.1-.1 2.4.2 3.4-.3 3.6-1.7 7-3.7 10.5-5.5.7-.4 1.5-.7 2.2-.9 1.8-.3 2.8 1.1 2 2.7-.3.6-.8 1.3-1.4 1.6-10.2 6.7-20.4 13.4-30.7 20-6.4 4.1-18.7 3.1-24.7-5.3-2.2-3.1-3.1-7.4-3.5-11.3-.6-5.3-.1-10.7-.1-16 0-.2-.1-.2-.2-.2z"/><path d="m36.7 42c0-8.3 0-16.5 0-24.7 0-2 1.7-3.6 3.5-3.7s3.6 1.4 3.9 3.5c.7 5.2 1.2 10.5 1.8 15.7.2 1.9.4 3.8.6 5.7.1 1.3.6 2.3 2 2 .7-.2 1.4-1.4 1.4-2.2 0-8.2-.1-16.4-.1-24.6 0-3.3 1.1-4.9 3.3-4.9 2.5-.1 4.6 2.2 4.6 5.1.1 8.2.1 16.4.1 24.6v2.4c1.9.3 2.9 0 3.2-2 .8-6.1 1.7-12.2 2.5-18.3.1-.4.1-.7.1-1.1.4-2.3 1.7-3.5 3.4-3.2 1.6.2 3.1 2.2 2.9 4.1-.6 6.8-1.1 13.6-1.8 20.4-.1.9-.5 1.8-1.1 2.5-4.8 5.2-9.7 10.4-14.6 15.5-.6.6-1.6.8-2.4 1.2-.4-.8-.9-1.6-1-2.4-.4-3.2-.6-6.4-1-9.6-.6-5.6-4.6-8.1-10-6.4-.5 0-.9.2-1.3.4z"/><path d="m33.2 66.2c-5.1-4.7-10.2-9.5-15.2-14.4-.6-.6-1-1.6-1-2.4 0-1.2.1-3 .8-3.4.9-.6 2.7-.5 3.8 0 3.7 1.8 7.1 4 10.8 5.9 1.2.6 1.6 1.4 1.6 2.7-.1 3.7 0 7.4 0 11.2-.4.2-.6.3-.8.4z"/></g></svg>