<svg width="246" height="88" viewBox="0 0 246 88" fill="none" xmlns="http://www.w3.org/2000/svg">
<path d="M63.5453 64.4864L57.621 58.5024C49.7219 66.528 36.9564 66.528 29.0573 58.5024C21.1583 50.4768 21.1583 37.5232 29.0573 29.4976C36.9564 21.472 49.7219 21.472 57.621 29.4976C61.5705 33.5104 63.5453 38.72 63.5453 44V64.4864V64.4864ZM73.9834 12.8832C57.0568 -4.2944 29.6216 -4.2944 12.695 12.8832C-4.23165 30.0608 -4.23165 57.9392 12.695 75.1168C29.6216 92.2944 57.0568 92.2944 73.9834 75.1168L86.6783 88V44C86.6783 32.736 82.4467 21.472 73.9834 12.8832Z" fill="#F26649"/>
<path d="M86.6783 88V44.0704C86.6783 32.8064 82.4466 21.5424 73.9833 12.9536C57.0567 -4.1536 29.6215 -4.1536 12.6949 13.024C12.6244 13.0944 12.6244 13.0944 12.5538 13.1648L28.9162 29.7792C28.9867 29.7088 28.9867 29.7088 29.0573 29.6384C36.9564 21.6128 49.7218 21.6128 57.6209 29.6384C61.5705 33.6512 63.5452 38.8608 63.5452 44.1408V64.6272" fill="#F26649"/>
<path d="M239.653 64.2752V53.7152H239.723L243.461 64.2752H246V47.3088H243.32V57.024L239.794 47.3088H237.114V64.2752H239.653V64.2752ZM228.368 51.5328C228.368 50.2656 228.721 49.632 229.92 49.632C231.119 49.632 231.471 50.2656 231.471 51.5328V60.1216C231.471 61.3888 231.119 62.0224 229.92 62.0224C228.721 62.0224 228.368 61.3888 228.368 60.1216V51.5328ZM225.477 60.192C225.477 62.5856 226.887 64.5568 229.92 64.5568C232.952 64.5568 234.363 62.5856 234.363 60.192V51.4624C234.363 49.0688 232.952 47.0976 229.92 47.0976C226.887 47.0976 225.477 49.0688 225.477 51.4624V60.192ZM222.655 47.3088H219.764V64.2752H222.655V47.3088ZM211.794 64.2752H214.686V49.8432H217.507V47.3088H208.973V49.8432H211.794V64.2752ZM202.273 60.544H205.447L205.94 64.2752H208.762L205.658 47.3088H202.061L198.888 64.2752H201.709L202.273 60.544ZM203.825 50.7584L205.024 58.0096H202.696L203.825 50.7584ZM188.309 64.2752H192.611C195.643 64.2752 197.195 62.656 197.195 59.136V52.448C197.195 48.9984 195.573 47.3088 192.611 47.3088H188.309V64.2752ZM191.2 49.7728H192.188C193.739 49.7728 194.303 50.336 194.303 52.1664V59.5584C194.303 61.3184 193.739 61.952 192.188 61.952H191.2V49.7728ZM183.019 57.024L179.422 47.3088H176.742V64.2752H179.352V53.7152H179.422L183.16 64.2752H185.699V47.3088H183.089C183.019 47.3088 183.019 53.6448 183.019 57.024ZM165.105 60.0512C165.105 62.9376 166.798 64.5568 169.548 64.5568C172.299 64.5568 173.991 62.9376 173.991 60.0512V47.3792H171.1V60.192C171.1 61.4592 170.606 62.0224 169.548 62.0224C168.49 62.0224 167.997 61.3888 167.997 60.192V47.3088H165.105V60.0512V60.0512ZM156.43 51.5328C156.43 50.2656 156.783 49.632 157.982 49.632C159.181 49.632 159.533 50.2656 159.533 51.5328V60.1216C159.533 61.3888 159.181 62.0224 157.982 62.0224C156.783 62.0224 156.43 61.3888 156.43 60.1216V51.5328ZM153.538 60.192C153.538 62.5856 154.949 64.5568 157.982 64.5568C161.014 64.5568 162.425 62.5856 162.425 60.192V51.4624C162.425 49.0688 161.014 47.0976 157.982 47.0976C154.949 47.0976 153.538 49.0688 153.538 51.4624V60.192ZM146.063 64.2752V56.8128H149.942V54.2784H146.063V49.9136H151.282V47.3792H143.171V64.3456H146.063V64.2752ZM135.554 51.2512C135.272 48.8576 133.861 47.168 131.534 47.168C128.642 47.168 127.02 48.7168 127.02 51.392C127.02 56.2496 132.944 57.1648 132.944 60.4736C132.944 61.4592 132.239 62.0224 131.252 62.0224C130.335 62.0224 129.63 61.1776 129.489 59.488L126.738 59.9104C126.879 62.4448 128.431 64.6272 131.111 64.6272C133.861 64.6272 135.695 63.0784 135.695 60.2624C135.695 55.6864 129.771 54.2784 129.771 51.392C129.771 50.336 130.264 49.7024 131.252 49.7024C131.887 49.7024 132.662 50.1248 132.803 51.6032L135.554 51.2512ZM115.524 64.2752H119.826C122.859 64.2752 124.411 62.656 124.411 59.136V52.448C124.411 48.9984 122.788 47.3088 119.826 47.3088H115.524V64.2752ZM118.416 49.7728H119.403C120.955 49.7728 121.519 50.336 121.519 52.1664V59.5584C121.519 61.3184 120.955 61.952 119.403 61.952H118.416V49.7728ZM112.703 47.3088H109.811V64.2752H112.703V47.3088ZM100.995 60.544H104.169L104.663 64.2752H107.484L104.381 47.3088H100.784L97.6807 64.2752H100.502L100.995 60.544ZM102.547 50.7584L103.746 58.0096H101.419L102.547 50.7584Z" fill="black"/>
<path d="M188.379 40.3392V29.7792H188.45L192.188 40.3392H194.727V23.3728H192.117V33.088H192.046L188.52 23.3728H185.84V40.3392H188.379V40.3392ZM177.095 40.3392V32.8064H180.198V40.3392H183.089V23.3728H180.198V30.272H177.095V23.3728H174.203V40.3392H177.095V40.3392ZM165.528 27.5264C165.528 26.2592 165.881 25.6256 167.08 25.6256C168.279 25.6256 168.631 26.2592 168.631 27.5264V36.1152C168.631 37.3824 168.279 38.016 167.08 38.016C165.881 38.016 165.528 37.3824 165.528 36.1152V27.5264ZM162.566 36.256C162.566 38.6496 163.977 40.6208 167.009 40.6208C170.042 40.6208 171.452 38.6496 171.452 36.256V27.456C171.452 25.0624 170.042 23.0912 167.009 23.0912C163.977 23.0912 162.566 25.0624 162.566 27.456V36.256ZM154.949 40.5504H155.936C159.181 40.5504 160.027 39.072 160.027 36.96V23.3728H157.135V36.608C157.135 37.5232 156.712 38.016 155.584 38.016H154.949V40.5504V40.5504ZM141.901 40.3392V29.7792H141.972L145.71 40.3392H148.249V23.3728H145.639V33.088H145.569L142.042 23.3728H139.362V40.3392H141.901V40.3392ZM130.617 27.5264C130.617 26.2592 130.97 25.6256 132.169 25.6256C133.368 25.6256 133.72 26.2592 133.72 27.5264V36.1152C133.72 37.3824 133.368 38.016 132.169 38.016C130.97 38.016 130.617 37.3824 130.617 36.1152V27.5264ZM127.725 36.256C127.725 38.6496 129.136 40.6208 132.169 40.6208C135.201 40.6208 136.612 38.6496 136.612 36.256V27.456C136.612 25.0624 135.201 23.0912 132.169 23.0912C129.136 23.0912 127.725 25.0624 127.725 27.456V36.256ZM119.967 40.3392H122.859V25.9072H125.68V23.3728H117.146V25.9072H119.967V40.3392ZM117.076 40.3392V37.8048H112.491V23.3728H109.6V40.3392H117.076V40.3392ZM107.343 40.3392V37.8048H102.124V32.8064H105.862V30.272H102.124V25.9072H106.99V23.3728H99.1617V40.3392H107.343Z" fill="black"/>
</svg>
