<svg xmlns="http://www.w3.org/2000/svg" viewBox="0 0 648.89 205"><title>logo</title><g id="LK_TITLE_3LINE_BLK_RED"><path d="M224,144.06c-.63,6.53-1,10.65-1.34,17.49H188.72V108.3c0-14.46-.24-23-.87-37.51-.39-11.29-.86-18-1.65-29.25,3.54-.16,5.66-.16,9.29-.31,4.48-.32,7.08-.64,11.64-1-.71,15.26-1.73,29.57-1.73,48.17.08,15.89.08,38,1.5,40.54,1.26,2.37,8.73,0,14-1.92l5.82-2c-1.25,7.15-2,11.58-2.75,19.05Z"/><path d="M234.84,134.11a323.25,323.25,0,0,0,1.1-35.86C235.7,86,235.22,78.84,234,66.69h19.6a304.64,304.64,0,0,0-.95,32.79,267,267,0,0,0,2,33.76l-19.91.87Z"/><path d="M291,66.69c41.46,0,41.46,67.34,0,67.34-40.45,0-40.45-67.34,0-67.34Zm.55,17.58c-7.63.18-14.08,6.65-14.25,15.21-.31,8.74,6.06,16,13.93,16.36s14.8-6.12,15.18-14.78c.48-9.18-6.68-16.88-14.87-16.79Z"/><path d="M376.83,134c-5.5-7.44-8.73-11.54-14.57-18.62-4.17-5.08-8.26-10.4-11-12.86-1.28-1.67-2.51-4-3.87-3.76-1,.09-.38,2.89-.23,4.64l2,30.17-19,1.05c.63-13.29.63-20.9.24-34S329.45,80.16,328,67.3l15.82.09,2.69,4.2,24.24,26.5c1.88,2.19,4.17,6,5.34,5.16s.39-2.45.33-3.95L375.5,70a65,65,0,0,0,8.19-.18,64.66,64.66,0,0,0,10-1.49V109.8c0,5.51,0,8.84.32,14.26.24,3.85.48,6.12.87,10Z"/><path d="M464.76,163c-2.76-10.34-4.5-16.37-7.64-25.89-3.3-10.18-5.43-15.91-9.21-25,.17,9.38-.24,14.78-.07,24.15.07,9.71.46,15.59,1.17,25.28H427.6c1-25.61,1.26-40.37,1-65.8-.17-22.09-.72-35-2.06-56.75h19.76V86.21c2.67-7.31,4.17-11.6,6.37-19.07,3.38-11,5.12-17.8,7.62-29.41,3.4,2.23,5.43,3.81,8.82,6.2,4.26,2.86,6.69,4.61,10.94,7.31a215.65,215.65,0,0,0-10.07,23.69c-3.38,9.06-7.71,22.41-7.88,24.48,0,3.5,5,14.47,8.49,22.73,2.85,6.84,4.58,10.81,7.64,17.17l3.7,7.79L464.76,163Z"/><path d="M489.43,134.11a318.93,318.93,0,0,0,1.11-35.86c-.24-12.24-.71-19.41-1.91-31.57h19.62a303.61,303.61,0,0,0-.95,32.79,266.43,266.43,0,0,0,2,33.76l-19.92.87Z"/><path d="M564.93,134c-5.49-7.44-8.71-11.54-14.55-18.62-4.19-5.08-8.27-10.4-11-12.86-1.25-1.67-2.52-4-3.86-3.76-1,.09-.41,2.89-.22,4.64l2,30.17-19.05,1.05c.61-13.29.61-20.9.24-34s-.88-20.47-2.29-33.33l15.84.09,2.67,4.2,24.24,26.5c1.89,2.19,4.16,6,5.34,5.16s.41-2.45.33-3.95L563.6,70a64.88,64.88,0,0,0,8.19-.18,65.14,65.14,0,0,0,10-1.49V109.8c0,5.51,0,8.84.3,14.26.27,3.85.5,6.12.87,10Z"/><path d="M629.74,133.84c-6.47-.17-10.25-.17-16.68,0-7.73-3.93-12-7.6-17.09-15a46.62,46.62,0,0,1-8-17.75,39.64,39.64,0,0,1,11.49-21.77c6.86-7.09,13.07-10.94,22.11-11.19,7.16-.09,11.25,2.71,17.57,6.47l2.9,1.67c-5.6,1.31-18.18,6.65-24.71,11.37-6.15,4.63-11.82,11.8-11.82,13,0,2.62,3.95,7.25,7.5,10.66,4.17,4.11,11.09,6.91,13.44,5.6,1.89-1,1.42-3.76,1.42-6.12V90.3l17.16.35a140.92,140.92,0,0,0-1.19,21.61,143.46,143.46,0,0,0,1.73,22c-6.12-.25-9.75-.36-15.89-.36Z"/><path d="M241,156.75c50.83-4.4,101.51-6.45,152.27.5,1.35,0,2.4-2.36,2.4-5.42s-1.05-5.43-2.4-5.43c-22.83-1.52-45.81-8.28-68.63-2.69-26.43-4.74-52.64,2.21-79.07,0-2.4-.18-4.58.5-6.68,3.21-1.2,1.37-1.66,4.56-1.13,7.28s2,3.74,3.23,2.55Z"/><path d="M488.62,157.44c31.1,2.88,62-7.44,92.89-6.43,19.52.69,38.66,14.06,59.07,4.58,1.75-.86,3.63,1.18,5.58,1.51,1.37.53,2.55-1.7,2.7-4.56.22-3.06-.75-5.75-2-6.09-2.41-.51-4.74-2.55-7-1.53-19.52,8.61-38,.16-56.54-6.44-31.53,3.56-63,11.18-94.69,8.13-1.35,0-2.4,2.35-2.4,5.43s1.05,5.4,2.4,5.4Z"/><path d="M47.65,75.14c-.48,4.12-.81,6.57-1,10.76l-3.87-1c-.77-.27-7.86-1.22-8.35-.18-.8,2-1.78,16.64,0,44.8l.3,4.64H15.2V129.3c0-17.12.48-43.39-1.11-44.35-1.5-.78-6.61,0-10.62.52L0,85.91,2,67.26c12.28,1,24.1.28,39.61,0a55.32,55.32,0,0,0,7.25-.69,70.72,70.72,0,0,0-1.19,8.57Z"/><path d="M88.88,134.05c.68-1.86-.18-20-.31-22-.1-.44-12.78-2.45-14-.26-1.66,2.79.85,17.75.93,22.24H55.23c.08-12.8.08-20.15.25-32.92-.33-12.43-.57-19.6-.72-32.12L73,68l-.26,4.64c0,7.52-1.25,16.79.48,18.47,1.33,1.13,12.36.95,13.58.52,1.39-.52.78-11.47.14-18.37a17.34,17.34,0,0,0-.88-4l20-1.73c-.1,12.85-.1,20.28-.21,33.07.28,12.88,0,18.57.84,33.45Z"/><path d="M152.86,134.13c-7,0-11.2-.18-18.2-.18-8.11,0-12.75.18-20.88.25.72-14.44.79-22.84.48-37.18-.15-12-.55-19.09-1.42-31.07a146.32,146.32,0,0,0,15.14.7,139.75,139.75,0,0,0,19.12-1.14L154.57,85a65.08,65.08,0,0,0-13.71-2.79c-4.06-.44-10.46-1.32-10.75-.36-.48,1.4-.34,9.36,0,12.33.08,1.92,22.74-2.19,22-1l.16,17.31c-.87.09-18.92-2.62-19.86-2.18-1.55,1.22-1.17,9.35-.86,11.18.33,1.49,22.14-3.32,23.85-3.77l-2.49,18.31Z"/><path d="M11,151.14c24.25,2.85,48.51,2.34,72.81,4.09,27.36,2,54.57-1.72,81.86-1.12,1.38,0,2.54-2.59,2.54-5.91s-1.1-6-2.52-6c-26.52-.58-53,2.9-79.56,1.16C61,141.67,36,142.11,11,139.2c-1.42,0-2.52,2.67-2.52,6s1.11,6,2.52,6Z"/><path d="M257.05,25.49A15.56,15.56,0,0,0,251.54,29a3.32,3.32,0,0,0-.62,2.92c2.83,5.22,8.06,9.15,13,11.54.34,1.81.34,3.77,1.45,5.1a7.32,7.32,0,0,0,2.76-.07c1-.44.9-1.84,1.11-2.77,8.4,2.11,17.64,1.31,24.39-3.92a14.21,14.21,0,0,0,5.31-14.38c-1.86-6-6.21-11.48-11.24-15.62C275.6,3.11,260.5-3.2,245.2,1.73c-1.72.65-2.2,2.54-2.75,4.15.68,1.23,2.33.94,3.58,1.08.42-.14,1.45-.07,1.31-.87-.69-1-1.86-.58-2.62-1.09.21-.51.89-.43,1.38-.73,8.68-1.52,17.09.15,24.6,3.06,8.61,3.7,18.68,9.29,22.54,19.3,1.18,3.79.62,8.37-2.48,11.05-5.86,4.94-14.2,5.38-21.57,3.92-.21-4.85-.29-8.5-.21-13.44.34-.65,1-.21,1.58-.36,4.06.44,8.14.88,11.65,2.76a2.52,2.52,0,0,1-.55,1.31c-.55.88-1.94,1-1.86,2.11a6.21,6.21,0,0,0,3,.5c1.24-.65,2.9-1.83,3.24-3.35s-.27-2.74-1-3.92c-4.28-3.91-10.14-4.28-15.72-4.21L269,22.8l-.34-6c-.21-1.6-1-3.49-2.62-4.06-1.66,3.19-1.38,7.19-1.87,10.82a50.58,50.58,0,0,0-7.17,2l1.66,3.27c1.78-.29,3.51-.43,5.37-.59,0,3.93-.28,7.71-.42,11.7-4.13-1.59-8.47-3.92-11.3-8.14-.28-.87.69-1.53,1.3-1.74a27.26,27.26,0,0,1,5-1.24l-1.66-3.27Z"/><path d="M302.06,23.52c.27-.44.48-1.16,1.1-1.31,1.38.23,1.65,1.82,2,3.06a148.44,148.44,0,0,1,.55,16.93,2.84,2.84,0,0,1-2.68.65c-2-.44-1.45-3-1.8-4.66a85.06,85.06,0,0,1,.83-14.67Z"/><path d="M297.93,16.4a5.82,5.82,0,0,1-1-6,10.84,10.84,0,0,1,1.72-2.47l2,1.66a7.4,7.4,0,0,0-1.24,1.75c-.15.58-.48,1.46,0,1.89,1.44-2,3.37-3.85,5-5.74a3.22,3.22,0,0,0-1.37.29,10.5,10.5,0,0,0-2.41,1.81l-2-1.66a13.66,13.66,0,0,1,6.06-4.14c2.21-.43,4.83-.8,6.68.58l.82,1.17a3.76,3.76,0,0,1,2.49.87c1.44,1.09,1.17,3.19.62,4.72a17.37,17.37,0,0,1-5.17,5.67l-1.37-2.48a12.76,12.76,0,0,0,1.86-1c1.31-1,2.83-2.46,2.49-4.36-.35-1.23-1.59-.94-2.49-.86-3.1,1.09-6,4-7.79,7a11.08,11.08,0,0,0,5.93-.72l1.37,2.48a14,14,0,0,1-3.59,1.81,9.37,9.37,0,0,1-5.64-.36c-.28.36-.69,1.88-1.59,1.81-.61,0-.89-.36-1.31-1.52a11.37,11.37,0,0,1-.07-2.11Z"/><path d="M310.54,35.5a1.49,1.49,0,0,0-.35,1.46c1.72,1.81,4.75,1,7,.94,2.35-.51,5.51-1,6.55-2.9-.35-2-2.55-2-4.07-2.68-3.44-.74-7.3-.44-10.75-1.25a3,3,0,0,1-1.45-1.89c-.07-2,.54-3.91,2.27-4.86,4.9-2.84,12.2-3.49,17.43-1.16.49.44-.06.87-.13,1.3-.89,1.24-2.33,1.16-3.72,1.38-4.14.51-8.6.3-12.33,1.89.07.66.89.59,1.3.8,4.7,1.59,11-.58,14.07,4.28a8.28,8.28,0,0,1-.48,6.47c-2.62,3.06-6.81,3.71-10.67,3.06-2.7-.66-5.66-2.25-6.7-5.32a4.6,4.6,0,0,1,1-3c2.21-1.74,5.1-1.18,7.79-.88a10.46,10.46,0,0,1,4.2,1.6c0,.58,0,1.67-3.44,2-2.08.34-5.31-2.77-7.58-1.25Z"/><path d="M330.39,24.32c.42-.66,1.1-1.31,1.87-.8,3.44,3.57,5.29,8,8.06,11.91.55-.07.2-.72.41-1.08,0-5.17-1.79-9.53-2.69-14.32,0-.51-.07-1.16.42-1.38,1.23.07,2.06,1.6,2.76,2.47a22.37,22.37,0,0,1,3.51,15c-.4,1.89-1,4-3,4.85a2,2,0,0,1-2.08.16c-3.58-3.05-4.76-7.41-7-11.26l-.34.72L331.7,41.1c-.2.65-.69,1.43-1.31,1.52a2.41,2.41,0,0,1-2.07-1.52c-1-2.24-.27-5.23-.13-7.78a31.93,31.93,0,0,1,2.2-9Z"/><path d="M346.86,31.44c-.21-.72.69-.87,1.1-1.09,1.18.07,1.1-1.52,1.59-2.24l.48-1.54c-1.38-.34-3.17-.72-3.52-2.6,0-.58.76-.44,1.1-.72,4-.51,8-1.45,12.19-1.16,1.39.66,2.77,2.11,2.62,3.71-1.23,1.09-3.16.72-4.82,1l-3.86.13-.83,2.84.21.15c1.86,0,4-.29,5.72.35.42.66.14,1.61.2,2.34-1,1-2.55.86-4.06.86-1.25.22-3.39-.66-3.72,1.08l-.89,3.14.13.15c2.89-.22,5.65-1.59,8.54-.94a2.76,2.76,0,0,1,.7,2.46c-3.17,2.62-6.62,5-10.89,4.29a5.82,5.82,0,0,1-3-4.78c-.28-2.77,2.35-4.66,1-7.42Z"/><path d="M370.78,29.33c-1.58,1.89-3,3.93-4.41,5.73a3.29,3.29,0,0,1-.15-1.67c.42-4.5,4.76-7.47,4.28-12.13-.91-.07-1.45,1-2.07,1.46-3.17,4.07-5.79,8.64-5.1,14.24a25.9,25.9,0,0,0,.89,2.54,73.89,73.89,0,0,0-3.79,14.16c0,1.3-.4,2.77.07,3.92.7,1.53,2.29,3.2,3.86,3a101.89,101.89,0,0,1,4.15-17.3l2.89-.07a15.33,15.33,0,0,0,10.61-11,9.34,9.34,0,0,0-1.92-8.07,2.56,2.56,0,0,0-2.55-.72,23.08,23.08,0,0,0-6.76,5.95l3.6,2.84a44.17,44.17,0,0,1,4.06-5c.69-.13.76.81,1,1.24a8.07,8.07,0,0,1-2.54,7,9.09,9.09,0,0,1-5.71,2.48c1-1.89,2.06-3.85,3.24-5.73l-3.6-2.84Z"/><path d="M257.05,25.49A15.56,15.56,0,0,0,251.54,29a3.32,3.32,0,0,0-.62,2.92c2.83,5.22,8.06,9.15,13,11.54.34,1.81.34,3.77,1.45,5.1a7.32,7.32,0,0,0,2.76-.07c1-.44.9-1.84,1.11-2.77,8.4,2.11,17.64,1.31,24.39-3.92a14.21,14.21,0,0,0,5.31-14.38c-1.86-6-6.21-11.48-11.24-15.62C275.6,3.11,260.5-3.2,245.2,1.73c-1.72.65-2.2,2.54-2.75,4.15.68,1.23,2.33.94,3.58,1.08.42-.14,1.45-.07,1.31-.87-.69-1-1.86-.58-2.62-1.09.21-.51.89-.43,1.38-.73,8.68-1.52,17.09.15,24.6,3.06,8.61,3.7,18.68,9.29,22.54,19.3,1.18,3.79.62,8.37-2.48,11.05-5.86,4.94-14.2,5.38-21.57,3.92-.21-4.85-.29-8.5-.21-13.44.34-.65,1-.21,1.58-.36,4.06.44,8.14.88,11.65,2.76a2.52,2.52,0,0,1-.55,1.31c-.55.88-1.94,1-1.86,2.11a6.21,6.21,0,0,0,3,.5c1.24-.65,2.9-1.83,3.24-3.35s-.27-2.74-1-3.92c-4.28-3.91-10.14-4.28-15.72-4.21L269,22.8l-.34-6c-.21-1.6-1-3.49-2.62-4.06-1.66,3.19-1.38,7.19-1.87,10.82a50.58,50.58,0,0,0-7.17,2l1.66,3.27c1.78-.29,3.51-.43,5.37-.59,0,3.93-.28,7.71-.42,11.7-4.13-1.59-8.47-3.92-11.3-8.14-.28-.87.69-1.53,1.3-1.74a27.26,27.26,0,0,1,5-1.24l-1.66-3.27Z"/><path d="M302.06,23.52c.27-.44.48-1.16,1.1-1.31,1.38.23,1.65,1.82,2,3.06a148.44,148.44,0,0,1,.55,16.93,2.84,2.84,0,0,1-2.68.65c-2-.44-1.45-3-1.8-4.66a85.06,85.06,0,0,1,.83-14.67Z"/><path d="M297.93,16.4a5.82,5.82,0,0,1-1-6,10.84,10.84,0,0,1,1.72-2.47l2,1.66a7.4,7.4,0,0,0-1.24,1.75c-.15.58-.48,1.46,0,1.89,1.44-2,3.37-3.85,5-5.74a3.22,3.22,0,0,0-1.37.29,10.5,10.5,0,0,0-2.41,1.81l-2-1.66a13.66,13.66,0,0,1,6.06-4.14c2.21-.43,4.83-.8,6.68.58l.82,1.17a3.76,3.76,0,0,1,2.49.87c1.44,1.09,1.17,3.19.62,4.72a17.37,17.37,0,0,1-5.17,5.67l-1.37-2.48a12.76,12.76,0,0,0,1.86-1c1.31-1,2.83-2.46,2.49-4.36-.35-1.23-1.59-.94-2.49-.86-3.1,1.09-6,4-7.79,7a11.08,11.08,0,0,0,5.93-.72l1.37,2.48a14,14,0,0,1-3.59,1.81,9.37,9.37,0,0,1-5.64-.36c-.28.36-.69,1.88-1.59,1.81-.61,0-.89-.36-1.31-1.52a11.37,11.37,0,0,1-.07-2.11Z"/><path d="M310.54,35.5a1.49,1.49,0,0,0-.35,1.46c1.72,1.81,4.75,1,7,.94,2.35-.51,5.51-1,6.55-2.9-.35-2-2.55-2-4.07-2.68-3.44-.74-7.3-.44-10.75-1.25a3,3,0,0,1-1.45-1.89c-.07-2,.54-3.91,2.27-4.86,4.9-2.84,12.2-3.49,17.43-1.16.49.44-.06.87-.13,1.3-.89,1.24-2.33,1.16-3.72,1.38-4.14.51-8.6.3-12.33,1.89.07.66.89.59,1.3.8,4.7,1.59,11-.58,14.07,4.28a8.28,8.28,0,0,1-.48,6.47c-2.62,3.06-6.81,3.71-10.67,3.06-2.7-.66-5.66-2.25-6.7-5.32a4.6,4.6,0,0,1,1-3c2.21-1.74,5.1-1.18,7.79-.88a10.46,10.46,0,0,1,4.2,1.6c0,.58,0,1.67-3.44,2-2.08.34-5.31-2.77-7.58-1.25Z"/><path d="M330.39,24.32c.42-.66,1.1-1.31,1.87-.8,3.44,3.57,5.29,8,8.06,11.91.55-.07.2-.72.41-1.08,0-5.17-1.79-9.53-2.69-14.32,0-.51-.07-1.16.42-1.38,1.23.07,2.06,1.6,2.76,2.47a22.37,22.37,0,0,1,3.51,15c-.4,1.89-1,4-3,4.85a2,2,0,0,1-2.08.16c-3.58-3.05-4.76-7.41-7-11.26l-.34.72L331.7,41.1c-.2.65-.69,1.43-1.31,1.52a2.41,2.41,0,0,1-2.07-1.52c-1-2.24-.27-5.23-.13-7.78a31.93,31.93,0,0,1,2.2-9Z"/><path d="M346.86,31.44c-.21-.72.69-.87,1.1-1.09,1.18.07,1.1-1.52,1.59-2.24l.48-1.54c-1.38-.34-3.17-.72-3.52-2.6,0-.58.76-.44,1.1-.72,4-.51,8-1.45,12.19-1.16,1.39.66,2.77,2.11,2.62,3.71-1.23,1.09-3.16.72-4.82,1l-3.86.13-.83,2.84.21.15c1.86,0,4-.29,5.72.35.42.66.14,1.61.2,2.34-1,1-2.55.86-4.06.86-1.25.22-3.39-.66-3.72,1.08l-.89,3.14.13.15c2.89-.22,5.65-1.59,8.54-.94a2.76,2.76,0,0,1,.7,2.46c-3.17,2.62-6.62,5-10.89,4.29a5.82,5.82,0,0,1-3-4.78c-.28-2.77,2.35-4.66,1-7.42Z"/><path d="M370.78,29.33c-1.58,1.89-3,3.93-4.41,5.73a3.29,3.29,0,0,1-.15-1.67c.42-4.5,4.76-7.47,4.28-12.13-.91-.07-1.45,1-2.07,1.46-3.17,4.07-5.79,8.64-5.1,14.24a25.9,25.9,0,0,0,.89,2.54,73.89,73.89,0,0,0-3.79,14.16c0,1.3-.4,2.77.07,3.92.7,1.53,2.29,3.2,3.86,3a101.89,101.89,0,0,1,4.15-17.3l2.89-.07a15.33,15.33,0,0,0,10.61-11,9.34,9.34,0,0,0-1.92-8.07,2.56,2.56,0,0,0-2.55-.72,23.08,23.08,0,0,0-6.76,5.95l3.6,2.84a44.17,44.17,0,0,1,4.06-5c.69-.13.76.81,1,1.24a8.07,8.07,0,0,1-2.54,7,9.09,9.09,0,0,1-5.71,2.48c1-1.89,2.06-3.85,3.24-5.73l-3.6-2.84Z"/><path d="M17.53,203.39c.11-1,.15-8.41.15-13.12v-7.89c-2.74,0-7.93.18-9.06.29v-5.08c1.64.22,10.31.37,10.71.37H22.5c.69,0,8.66-.15,10.45-.37v5.08c-.69-.11-7.46-.29-9.06-.29v8.48c0,5.26.18,11.8.26,12.54Z"/><path d="M38,203.39c.07-1.61.11-10.16.11-11.11v-3.95c0-.62-.11-9.87-.18-10.74h6.58c-.07.66-.18,7.89-.18,8.55v2l12.28-.69v-2.08c0-.62-.07-7-.15-7.78H63c-.07.88-.18,11-.18,11.84v3.65c0,.48.07,9.61.15,10.31H56.38c.07-1.24.18-7.42.18-8.11v-3.18l-12.28.69v1.72c0,1.64.11,8,.15,8.88Z"/><path d="M83.61,203.75c-1,0-13.3-.37-14.73-.37.11-1.94.11-9.76.11-10.6v-4.9c0-.58-.07-9.39-.11-10.31,1.57,0,12.75-.55,14-.66l.15,4.71c-1.24,0-7.27.18-7.89.18v6.65c.69,0,5-.18,6.69-.33l.11,4.6c-.88,0-6-.15-6.8-.15v6.25c.91,0,6.1.07,8.33-.11Z"/><path d="M97.32,201.3c1.46-2.56,11.77-21.16,14.22-25h.26c3.91,6,13.27,21.89,15.17,24.7l-5.55,3.36c-.91-1.64-3.58-6.61-4-7.16l-11.69.55c-.33.73-2.27,5.12-3.07,6.65Zm18.2-8.19c-.77-1.53-3.44-6.5-4-7.64-.73,1.43-3.22,6.58-3.91,8Z"/><path d="M131.76,176.86c1.32,4.57,5,15.5,5.45,17,.66-1.1,4.53-7.46,7.6-12.61h.26c2.81,4.5,6.18,9.65,7.75,12h.11c.91-2.23,4.93-13.89,5.7-16l5.74,2.41c-.51,1.13-9.68,22-11,24.34h-.26c-1.79-2.59-7.16-10.93-8.37-12.86-2,3.07-7.05,11.4-8.7,13.89h-.29c-1.35-2.81-8.37-21.38-10-25.91Z"/><path d="M162.72,201.3c1.46-2.56,11.77-21.16,14.22-25h.26c3.91,6,13.27,21.89,15.17,24.7l-5.55,3.36c-.91-1.64-3.58-6.61-4-7.16l-11.69.55c-.33.73-2.27,5.12-3.07,6.65Zm18.2-8.19c-.77-1.53-3.44-6.5-4-7.64-.73,1.43-3.22,6.58-3.91,8Z"/><path d="M197.18,203.39c.15-.88.07-12.46.07-13.23v-3c0-1.1-.07-8.88-.18-9.58a94.79,94.79,0,0,1,11,.48c5.26.66,8.11,2.7,8.11,6,0,3-2,5.37-4.86,7.35,1,1.24,7,7.93,8,9l-5.15,3.95c-.66-1-8.19-11.51-9.25-13.08,1.72-1,4.75-3.07,4.75-6,0-1.72-1.21-3.65-6.36-3.69v10.6c0,1.39.11,10.63.18,11.18Z"/><path d="M224.34,187.31c0-.77,0-8.7-.18-9.72a95.58,95.58,0,0,1,12.1.55c10.56,1.39,12.21,6.51,12.21,9.28,0,11.44-14,16.15-24.34,16.15.15-1.68.22-10.74.22-11.73Zm6.14,10.93c6.07-.73,11.22-4.61,11.22-9.68,0-4.79-5-6.4-11.22-6.36Z"/><path d="M251.31,188.33c1.86,0,10.27.11,11.77.07l.11,4c-1.43-.11-10.31.29-11.69.4Z"/><path d="M271.08,176.86c1.32,4.57,5,15.5,5.45,17,.66-1.1,4.53-7.46,7.6-12.61h.26c2.81,4.5,6.18,9.65,7.75,12h.11c.91-2.23,4.93-13.89,5.7-16l5.74,2.41c-.51,1.13-9.68,22-11,24.34h-.26c-1.79-2.59-7.16-10.93-8.37-12.86-2,3.07-7.05,11.4-8.7,13.89h-.29c-1.35-2.81-8.37-21.38-10-25.91Z"/><path d="M307.78,203.39c.07-1.61.11-10.16.11-11.11v-3.95c0-.62-.11-9.87-.15-10.74h6.5c0,.66-.15,6.43-.15,10.82v3.95c0,3.65.11,10.2.15,11Z"/><path d="M322,203.39c.11-1.35.4-6.87.69-12.61s.58-11.73.73-13.92l.29-.11c3.44,2.74,17.62,15.24,18.78,16.37,0-1.5.11-14.29.15-15.71l5.77.18c-.15,2.12-.44,7.09-.69,12.35s-.51,10.78-.62,14.07l-.29.11C343.89,202,328.5,188.4,328,187.75H328c0,1.24-.18,14.69-.15,15.9Z"/><path d="M355,203.39c.11-1.35.4-6.87.69-12.61s.58-11.73.73-13.92l.29-.11c3.44,2.74,17.62,15.24,18.78,16.37,0-1.5.11-14.29.15-15.71l5.77.18c-.15,2.12-.44,7.09-.69,12.35s-.51,10.78-.62,14.07l-.29.11C376.89,202,361.51,188.4,361,187.75H361c0,1.24-.18,14.69-.15,15.9Z"/><path d="M389.14,203.39c.07-1.61.11-10.16.11-11.11v-3.95c0-.62-.11-9.87-.15-10.74h6.5c0,.66-.15,6.43-.15,10.82v3.95c0,3.65.11,10.2.15,11Z"/><path d="M403.35,203.39c.11-1.35.4-6.87.69-12.61s.58-11.73.73-13.92l.29-.11c3.44,2.74,17.62,15.24,18.78,16.37,0-1.5.11-14.29.15-15.71l5.77.18c-.15,2.12-.44,7.09-.69,12.35s-.51,10.78-.62,14.07l-.29.11c-2.92-2.08-18.31-15.71-18.78-16.37h-.07c0,1.24-.18,14.69-.15,15.9Z"/><path d="M455.62,197.72c0,1.39.07,4.64.07,5.3a30.58,30.58,0,0,1-8.08,1c-9.68-.07-14.47-4.9-14.47-10.78,0-4.31,4.06-12.79,18.53-16.26l1.32,5.52c-6.32,1.06-13.27,5.19-13.27,10.53,0,3.11,2.81,6.1,7.16,6.1a19,19,0,0,0,2.67-.11v-4.2c0-1.06,0-2.16-.07-2.85h6.18c0,1.2,0,2,0,3.14Z"/><path d="M471.48,202.4c.66-1.5,8.22-22.44,9.54-25.51h.26c1.75,3.07,7.78,13.85,8.88,15.71,1.39-2.12,7.53-12.61,9-14.91h.26c2,4.42,9,21.49,10.27,24.27L504,204.45c-1.13-2.85-5.45-14.62-5.88-15.57-.8,1.17-6.21,10-8.44,13.23h-.22c-2.56-4.13-6.65-11.51-7.38-13H482c-.58,1.72-4.42,13.74-5,15.35Z"/><path d="M535.92,185.22c0,7-.4,11.4-3.18,14.73-2.19,2.71-5.41,4-9.39,4-2.56,0-6.83-.44-9.54-4.5-1.75-2.67-2.38-5.45-2.38-14.33v-2c0-1.68,0-4.57,0-5.41H518a51.41,51.41,0,0,0-.22,6.21v2.49c0,5.55.29,8.22,1.68,10.2a5,5,0,0,0,4.38,2.23,5.12,5.12,0,0,0,4.46-2.41c1.32-2,1.35-4.75,1.35-11.66v-1.35c0-2.52-.15-4.9-.18-6.25h6.43c0,.8,0,3.44,0,6.32Z"/><path d="M541,199.18c3.54-.22,7.67-1.53,7.67-3.69,0-1.17-.77-1.79-3.62-3.4-2.63-1.5-5.12-3.18-5.12-6.1,0-4,5.45-8.11,13-9.06l.88,4.79c-3.62.15-7.16,1.32-7.16,3.43,0,1.24,1.72,2.08,3.76,3.18,2.23,1.21,5,2.63,5,5.81,0,3.84-4,8.48-13.45,9.9Z"/><path d="M561.69,203.39c.07-1.61.11-10.16.11-11.11v-3.95c0-.62-.11-9.87-.15-10.74h6.5c0,.66-.15,6.43-.15,10.82v3.95c0,3.65.11,10.2.15,11Z"/><path d="M594.81,203.64a29.81,29.81,0,0,1-4.57.33c-12.21,0-16.08-6.65-16.08-10.93,0-6,5.52-13.49,18.24-16l1.17,5.48c-8,1.21-12.64,5.23-12.64,9.76,0,3.51,3.25,6.58,9.72,6.58a21.87,21.87,0,0,0,3.8-.33Z"/><path d="M598.13,201.3c1.46-2.56,11.77-21.16,14.22-25h.26c3.91,6,13.27,21.89,15.17,24.7l-5.56,3.36c-.91-1.64-3.58-6.61-4-7.16l-11.69.55c-.33.73-2.27,5.12-3.07,6.65Zm18.2-8.19c-.77-1.53-3.43-6.5-4-7.64-.73,1.43-3.22,6.58-3.91,8Z"/><path d="M647.22,203.75c-.73,0-12.64-.37-14.76-.37.18-1.94.18-9.76.18-10.63v-4.86c0-.58-.07-9.61-.15-10.31h6.58c-.07.84-.22,8.22-.22,12.83v8.19c.88,0,5.19,0,8.33-.15Z"/></g></svg>